<svg width="221" height="47" viewBox="0 0 221 47" fill="none" xmlns="http://www.w3.org/2000/svg">
<path d="M84.76 14.52C82.16 14.52 80.48 15.89 79.52 17.5C78.49 15.58 76.67 14.52 74.28 14.52C72.33 14.52 70.75 15.38 69.76 16.75C69.66 15.62 68.83 14.87 67.63 14.87C66.43 14.87 65.58 15.73 65.58 16.96V29.39C65.58 30.62 66.44 31.48 67.67 31.48C68.9 31.48 69.76 30.62 69.76 29.39V22.06C69.76 19.83 70.99 18.43 72.98 18.43C74.97 18.43 76.2 19.84 76.2 22.06V29.39C76.2 30.62 77.09 31.48 78.32 31.48C79.55 31.48 80.41 30.62 80.41 29.39V22.06C80.41 19.83 81.64 18.43 83.63 18.43C85.62 18.43 86.85 19.84 86.85 22.06V29.39C86.85 30.62 87.74 31.48 88.97 31.48C90.2 31.48 91.06 30.62 91.06 29.39V21.45C91.06 17.07 88.56 14.53 84.76 14.53V14.52Z" fill="#165BE5"/>
<path d="M111.21 21.79C111.21 18.26 108.33 14.53 103.19 14.53C98.05 14.53 94.73 18.4 94.73 23.16C94.73 27.92 98.43 31.83 103.53 31.83C107.09 31.83 109.87 30.42 109.87 28.58C109.87 27.59 109.19 26.97 108.19 26.97C107.03 26.97 106.13 28.17 103.67 28.17C101.21 28.17 99.42 26.52 99.01 24.23H108.74C110.35 24.23 111.21 23.27 111.21 21.8V21.79ZM99.08 21.58C99.56 19.49 101 18.05 103.05 18.05C105.1 18.05 106.58 19.28 106.99 21.58H99.08Z" fill="#165BE5"/>
<path d="M128.78 7.71001C127.52 7.71001 126.66 8.57001 126.66 9.80001V16.65C125.46 15.31 123.78 14.53 121.66 14.53C117.1 14.53 113.78 18.23 113.78 23.16C113.78 28.09 117.31 31.83 121.66 31.83C123.82 31.83 125.49 30.97 126.66 29.57C126.76 30.7 127.62 31.49 128.78 31.49C129.94 31.49 130.87 30.6 130.87 29.36V9.80001C130.87 8.57001 130.01 7.71001 128.78 7.71001ZM122.35 27.92C119.82 27.92 117.97 25.8 117.97 23.16C117.97 20.52 119.82 18.43 122.35 18.43C124.88 18.43 126.67 20.52 126.67 23.16C126.67 25.8 124.86 27.92 122.35 27.92Z" fill="#165BE5"/>
<path d="M137.83 7.88C136.49 7.88 135.4 8.98001 135.4 10.31C135.4 11.64 136.5 12.77 137.83 12.77C139.16 12.77 140.3 11.67 140.3 10.31C140.3 8.95001 139.2 7.88 137.83 7.88ZM137.83 14.87C136.63 14.87 135.78 15.73 135.78 16.96V29.39C135.78 30.62 136.64 31.48 137.87 31.48C139.1 31.48 139.96 30.62 139.96 29.39V16.96C139.96 15.73 139.1 14.87 137.84 14.87H137.83Z" fill="#165BE5"/>
<path d="M158.76 14.87C157.6 14.87 156.77 15.59 156.64 16.68C155.48 15.31 153.8 14.52 151.64 14.52C147.08 14.52 143.76 18.22 143.76 23.15C143.76 28.08 147.29 31.82 151.64 31.82C153.8 31.82 155.48 30.96 156.64 29.56C156.71 30.69 157.56 31.48 158.76 31.48C159.96 31.48 160.85 30.62 160.85 29.39V16.96C160.85 15.73 159.99 14.87 158.76 14.87ZM152.32 27.92C149.78 27.92 147.94 25.8 147.94 23.16C147.94 20.52 149.79 18.43 152.32 18.43C154.85 18.43 156.64 20.52 156.64 23.16C156.64 25.8 154.83 27.92 152.32 27.92Z" fill="#165BE5"/>
<path d="M174.52 14.52C172.53 14.52 170.93 15.27 169.9 16.61C169.76 15.55 168.97 14.86 167.81 14.86C166.65 14.86 165.75 15.72 165.75 16.95V29.38C165.75 30.61 166.61 31.47 167.84 31.47C169.07 31.47 169.93 30.61 169.93 29.38V22.05C169.93 19.82 171.19 18.42 173.25 18.42C175.31 18.42 176.57 19.83 176.57 22.05V29.38C176.57 30.61 177.46 31.47 178.69 31.47C179.92 31.47 180.78 30.61 180.78 29.38V21.44C180.78 17.15 178.31 14.52 174.51 14.52H174.52Z" fill="#165BE5"/>
<path d="M194.33 14.52C192.34 14.52 190.73 15.27 189.7 16.61C189.56 15.55 188.78 14.86 187.61 14.86C186.44 14.86 185.56 15.72 185.56 16.95V29.38C185.56 30.61 186.42 31.47 187.65 31.47C188.88 31.47 189.74 30.61 189.74 29.38V22.05C189.74 19.82 191.01 18.42 193.06 18.42C195.11 18.42 196.38 19.83 196.38 22.05V29.38C196.38 30.61 197.27 31.47 198.5 31.47C199.73 31.47 200.59 30.61 200.59 29.38V21.44C200.59 17.15 198.13 14.52 194.32 14.52H194.33Z" fill="#165BE5"/>
<path d="M220.74 21.79C220.74 18.26 217.86 14.53 212.72 14.53C207.58 14.53 204.26 18.4 204.26 23.16C204.26 27.92 207.96 31.83 213.06 31.83C216.62 31.83 219.4 30.42 219.4 28.58C219.4 27.59 218.71 26.97 217.72 26.97C216.56 26.97 215.67 28.17 213.2 28.17C210.73 28.17 208.95 26.52 208.54 24.23H218.27C219.88 24.23 220.74 23.27 220.74 21.8V21.79ZM208.62 21.58C209.1 19.49 210.54 18.05 212.59 18.05C214.64 18.05 216.12 19.28 216.53 21.58H208.62Z" fill="#165BE5"/>
<path d="M26.1001 27.12L26.2701 27.05V32.39C26.2701 33.72 25.19 34.8 23.86 34.8C22.53 34.8 21.4501 33.72 21.4501 32.39V28.95C21.6501 28.87 21.8601 28.8 22.0701 28.72C22.3301 28.62 22.5601 28.53 22.7801 28.45C22.9701 28.38 23.1401 28.31 23.2901 28.25L23.6301 28.11L24.05 27.93C24.11 27.91 24.1801 27.89 24.2501 27.85H24.2801V27.84H24.2901L24.3201 27.82C24.4201 27.78 24.6001 27.7 24.8501 27.61L24.9301 27.57L25.0201 27.54C25.1701 27.47 25.3601 27.4 25.5601 27.33L26.0901 27.12H26.1001Z" fill="#165BE5"/>
<path d="M31.88 12.25C32.32 12.69 32.59 13.29 32.59 13.95V23.37C32.23 23.47 31.85 23.58 31.39 23.71C31.35 23.72 31.3 23.73 31.26 23.75C30.56 23.96 29.83 24.19 29.09 24.43C28.65 24.57 28.21 24.73 27.76 24.88V14.01C27.76 12.73 28.73 11.62 30.01 11.53C30.74 11.49 31.41 11.76 31.88 12.23V12.25Z" fill="#165BE5"/>
<path d="M42.27 26.32C42.68 28.35 41.13 30.13 39.17 30.13H37.24V23.94C37.33 23.93 37.43 23.92 37.52 23.91C37.88 23.87 38.23 23.84 38.57 23.82C38.63 23.82 38.69 23.82 38.76 23.82C38.88 23.82 38.99 23.82 39.1 23.82H39.12C40.63 23.82 41.98 24.85 42.27 26.33V26.32Z" fill="#165BE5"/>
<path d="M36.81 0.0700073H10.92C5.32004 0.0700073 0.77002 4.61001 0.77002 10.22V36.11C0.77002 41.71 5.31004 46.26 10.92 46.26H36.81C42.41 46.26 46.96 41.72 46.96 36.11V10.22C46.96 4.62001 42.42 0.0700073 36.81 0.0700073ZM8.99002 22.75H10.49V21.25H11.99V22.75H13.49V24.25H11.99V25.75H10.49V24.25H8.99002V22.75ZM39.07 31.65H32.59V24.95C32.19 25.06 31.81 25.17 31.42 25.29C31.37 25.31 31.32 25.32 31.26 25.34C30.56 25.56 29.83 25.79 29.09 26.04C28.65 26.19 28.21 26.34 27.76 26.51V32.39C27.76 34.52 26.03 36.26 23.9 36.29H23.85C20.38 36.29 17.5 33.79 16.91 30.5C16.47 30.63 16.05 30.76 15.63 30.88C14.81 31.11 14.03 31.31 13.3 31.47C12.84 31.57 12.4 31.66 11.97 31.74C11.45 31.84 10.95 31.92 10.48 31.97C10.01 32.02 9.57003 32.06 9.16003 32.08C8.97003 32.08 8.80003 32.09 8.62003 32.09H8.54004C5.96004 32.09 3.87003 29.99 3.87003 27.41C3.87003 25.13 5.52003 23.22 7.69003 22.82V24.37C6.16003 24.8 5.10004 26.36 5.45004 28.08C5.75004 29.55 7.10004 30.57 8.60004 30.57H8.62003C8.79003 30.57 8.97002 30.57 9.15002 30.56C9.56002 30.54 10 30.5 10.48 30.44V27.04H11.97V30.2C12.4 30.12 12.84 30.02 13.3 29.91C13.98 29.75 14.7 29.56 15.47 29.34C15.9 29.22 16.34 29.09 16.8 28.94V20.31C16.8 19.64 16.53 19.04 16.1 18.61C15.66 18.17 15.06 17.9 14.4 17.9C13.19 17.9 12.18 18.8 12.02 19.97H10.52C10.7 17.99 12.34 16.44 14.35 16.42H14.4C18.25 16.42 21.38 19.51 21.45 23.34V27.34C21.65 27.26 21.83 27.19 21.99 27.13C22.03 27.12 22.07 27.1 22.1 27.09L22.14 27.07C22.38 26.98 22.59 26.89 22.77 26.82C22.94 26.75 23.09 26.69 23.2 26.64L23.44 26.54C23.44 26.54 23.48 26.53 23.5 26.52L23.68 26.45C23.68 26.45 23.71 26.44 23.72 26.44L23.78 26.41C23.93 26.34 24.3 26.19 24.82 25.99C24.85 25.98 24.9 25.96 24.93 25.95C25.28 25.81 25.71 25.64 26.26 25.44V13.96C26.26 11.83 27.99 10.08 30.12 10.06H30.17C34.07 10.06 37.23 13.22 37.23 17.11V22.43C37.31 22.42 37.39 22.41 37.47 22.4C37.86 22.36 38.22 22.33 38.56 22.31C38.61 22.31 38.66 22.31 38.71 22.31C38.84 22.31 38.97 22.31 39.09 22.31H39.18C41.8 22.31 43.92 24.48 43.85 27.12C43.78 29.67 41.62 31.67 39.07 31.67V31.65Z" fill="#165BE5"/>
</svg>
