<svg width="43" height="44" viewBox="0 0 43 44" fill="none" xmlns="http://www.w3.org/2000/svg">
<path d="M23.52 25.44L23.68 25.38V30.32C23.68 31.55 22.68 32.55 21.45 32.55C20.22 32.55 19.22 31.55 19.22 30.32V27.14C19.41 27.07 19.6 27 19.79 26.92C20.03 26.83 20.25 26.75 20.45 26.67C20.62 26.6 20.78 26.54 20.92 26.48L21.24 26.35L21.63 26.19C21.69 26.17 21.75 26.15 21.82 26.12H21.85V26.11L21.88 26.09C21.97 26.05 22.14 25.98 22.37 25.89L22.45 25.86L22.54 25.83C22.68 25.77 22.85 25.7 23.04 25.63L23.53 25.44H23.52Z" fill="white"/>
<path d="M28.87 11.68C29.27 12.08 29.53 12.64 29.53 13.25V21.97C29.19 22.06 28.84 22.16 28.42 22.28C28.38 22.29 28.34 22.3 28.3 22.32C27.65 22.51 26.98 22.72 26.3 22.95C25.89 23.08 25.48 23.22 25.07 23.37V13.31C25.07 12.12 25.97 11.1 27.15 11.02C27.82 10.98 28.44 11.23 28.88 11.67L28.87 11.68Z" fill="white"/>
<path d="M38.48 24.7C38.86 26.58 37.42 28.23 35.61 28.23H33.82V22.5C33.91 22.49 33.99 22.48 34.08 22.47C34.41 22.43 34.74 22.4 35.05 22.39C35.11 22.39 35.16 22.39 35.22 22.39C35.33 22.39 35.43 22.39 35.54 22.39H35.56C36.96 22.39 38.21 23.35 38.48 24.72V24.7Z" fill="white"/>
<path d="M33.43 0.410034H9.46001C4.27001 0.410034 0.0700073 4.62003 0.0700073 9.80003V33.77C0.0700073 38.96 4.28001 43.16 9.46001 43.16H33.43C38.62 43.16 42.82 38.95 42.82 33.77V9.80003C42.82 4.61003 38.61 0.410034 33.43 0.410034ZM7.67 21.4H9.06V20.01H10.45V21.4H11.84V22.79H10.45V24.18H9.06V22.79H7.67V21.4ZM35.52 29.64H29.52V23.44C29.15 23.54 28.79 23.64 28.44 23.75C28.39 23.77 28.34 23.78 28.29 23.8C27.64 24 26.97 24.22 26.29 24.45C25.88 24.59 25.48 24.73 25.06 24.88V30.33C25.06 32.31 23.46 33.92 21.49 33.94H21.45C18.24 33.94 15.57 31.62 15.02 28.58C14.62 28.7 14.22 28.82 13.84 28.93C13.08 29.14 12.36 29.32 11.68 29.48C11.25 29.57 10.84 29.66 10.45 29.73C9.97 29.82 9.51001 29.89 9.07001 29.94C8.64001 29.99 8.23001 30.03 7.85001 30.04C7.68001 30.04 7.51001 30.04 7.35001 30.04H7.27C4.88 30.04 2.94 28.1 2.94 25.71C2.94 23.6 4.47 21.83 6.47 21.46V22.89C5.05 23.29 4.06999 24.73 4.39999 26.33C4.67999 27.69 5.92 28.64 7.31 28.64H7.33C7.49 28.64 7.65001 28.64 7.82001 28.64C8.20001 28.62 8.61 28.58 9.05 28.53V25.38H10.43V28.3C10.82 28.22 11.23 28.14 11.66 28.04C12.29 27.89 12.96 27.72 13.66 27.51C14.06 27.4 14.47 27.27 14.89 27.14V19.15C14.89 18.53 14.64 17.98 14.24 17.57C13.84 17.17 13.28 16.91 12.66 16.91C11.54 16.91 10.6 17.74 10.45 18.82H9.06C9.22 16.99 10.75 15.55 12.61 15.53H12.66C16.23 15.53 19.12 18.39 19.19 21.94V25.64C19.37 25.57 19.54 25.5 19.69 25.45C19.72 25.44 19.76 25.42 19.8 25.41L19.84 25.39C20.06 25.3 20.25 25.23 20.42 25.16C20.58 25.1 20.71 25.04 20.82 25L21.04 24.91C21.04 24.91 21.07 24.9 21.1 24.89L21.27 24.82C21.27 24.82 21.3 24.82 21.31 24.81L21.36 24.78C21.5 24.72 21.84 24.58 22.32 24.39C22.35 24.38 22.39 24.36 22.43 24.35C22.75 24.22 23.16 24.07 23.66 23.88V13.25C23.66 11.27 25.26 9.66003 27.23 9.64003H27.27C30.88 9.64003 33.8 12.57 33.8 16.17V21.09C33.87 21.09 33.95 21.07 34.02 21.06C34.38 21.02 34.72 20.99 35.03 20.98C35.07 20.98 35.12 20.98 35.17 20.98C35.29 20.98 35.41 20.98 35.52 20.98H35.6C38.02 20.98 39.98 22.99 39.92 25.43C39.86 27.79 37.86 29.64 35.5 29.64H35.52Z" fill="white"/>
</svg>
