<?xml version="1.0" encoding="UTF-8"?>
<svg id="Layer_2" data-name="Layer 2" xmlns="http://www.w3.org/2000/svg" viewBox="0 0 42.76 42.76">
  <defs>
    <style>
      .cls-1 {
        fill: #165be5;
      }

      .cls-2 {
        fill: #fff;
      }
    </style>
  </defs>
  <g id="Layer_1-2" data-name="Layer 1">
    <g>
      <path class="cls-1" d="M23.61,24.97v4.94c0,1.23-.99,2.23-2.23,2.23-.62,0-1.17-.25-1.58-.65-.4-.41-.65-.97-.65-1.58v-3.18c.19-.07.38-.14.57-.22.24-.09.46-.17.66-.25.17-.07.33-.13.47-.19l.32-.12.39-.17s.11-.04.18-.07h.03s.01-.01.01-.01h.01s.02-.02.02-.02c.1-.03.26-.1.5-.19l.07-.04.09-.03c.14-.06.31-.13.5-.2l.48-.19.16-.06Z"/>
      <path class="cls-1" d="M29.46,12.84v8.73c-.34.09-.69.19-1.11.31-.04.01-.08.02-.12.04-.66.19-1.33.4-2.01.63-.4.13-.81.27-1.23.42v-10.06c0-1.19.9-2.21,2.09-2.29.67-.04,1.29.21,1.72.65.41.4.66.96.66,1.57Z"/>
      <path class="cls-1" d="M35.55,27.83h-1.79v-5.73c.09-.02.17-.03.26-.04.33-.04.66-.06.97-.08h.17c.11-.01.22-.01.32-.01h.02c1.4,0,2.65.96,2.92,2.33.38,1.87-1.06,3.53-2.87,3.53Z"/>
      <path class="cls-1" d="M33.36,0H9.39C4.21,0,0,4.2,0,9.39v23.97c0,5.19,4.21,9.4,9.39,9.4h23.97c5.19,0,9.4-4.21,9.4-9.4V9.39c0-5.19-4.21-9.39-9.4-9.39ZM7.61,20.99h1.39v-1.39h1.39v1.39h1.38v1.39h-1.38v1.39h-1.39v-1.39h-1.39v-1.39ZM35.45,29.23h-5.99v-6.21c-.37.1-.73.21-1.08.32-.05.01-.1.03-.15.04-.66.2-1.33.42-2.01.65-.4.14-.81.28-1.23.44v5.44c0,1.98-1.59,3.59-3.56,3.61h-.05c-3.21,0-5.87-2.31-6.43-5.36-.4.12-.79.24-1.18.35-.76.21-1.48.39-2.16.55-.42.09-.83.18-1.23.25-.48.09-.94.16-1.38.21-.43.05-.84.09-1.22.1-.17.01-.34.01-.49.01h-.08c-2.39,0-4.33-1.94-4.33-4.33,0-2.11,1.53-3.88,3.54-4.25v1.43c-1.42.4-2.4,1.85-2.07,3.44.28,1.36,1.52,2.31,2.91,2.31h.02c.16,0,.32,0,.49-.01.39-.02.79-.05,1.23-.11v-3.15h1.38v2.92c.4-.07.81-.16,1.23-.26.63-.15,1.3-.33,2.01-.53.4-.11.81-.24,1.23-.37v-7.99c0-.62-.25-1.17-.66-1.58-.4-.4-.96-.65-1.57-.65-1.13,0-2.06.83-2.21,1.91h-1.39c.16-1.83,1.69-3.27,3.55-3.29h.05c3.56,0,6.46,2.86,6.53,6.41v3.7c.19-.07.35-.13.5-.19.04-.01.07-.03.11-.04l.04-.02c.22-.08.41-.16.58-.22.16-.07.29-.13.4-.17l.22-.09s.03-.01.05-.02l.17-.07s.03-.01.04-.01l.05-.03c.15-.06.49-.2.97-.38.03-.02.07-.03.1-.05.32-.12.73-.28,1.23-.47v-10.63c0-1.97,1.6-3.58,3.57-3.61h.04c3.61,0,6.54,2.93,6.54,6.54v4.92c.07-.01.15-.02.22-.03.36-.04.7-.07,1.01-.08h.13c.12,0,.24-.01.36-.01h.08c2.42,0,4.38,2.01,4.32,4.45-.07,2.36-2.06,4.21-4.43,4.21Z"/>
      <polygon class="cls-2" points="11.77 20.99 11.77 22.38 10.39 22.38 10.39 23.77 9 23.77 9 22.38 7.61 22.38 7.61 20.99 9 20.99 9 19.6 10.39 19.6 10.39 20.99 11.77 20.99"/>
      <path class="cls-2" d="M35.56,20.57h-.08c-.12,0-.24.01-.36.01h-.13c-.31.01-.65.04-1.01.08-.07.01-.15.02-.22.03v-4.92c0-3.61-2.93-6.54-6.54-6.54h-.04c-1.97.03-3.57,1.64-3.57,3.61v10.63c-.5.19-.91.35-1.23.47-.03.02-.07.03-.1.05-.48.18-.82.32-.97.38l-.05.03s-.02.01-.04.01l-.17.07s-.04.02-.05.02l-.22.09c-.11.04-.24.1-.4.17-.17.06-.36.14-.58.22l-.04.02s-.07.03-.11.04c-.15.06-.31.12-.5.19v-3.7c-.07-3.55-2.97-6.41-6.53-6.41h-.05c-1.86.02-3.39,1.46-3.55,3.29h1.39c.15-1.08,1.08-1.91,2.21-1.91.61,0,1.17.25,1.57.65.41.41.66.96.66,1.58v7.99c-.42.13-.83.26-1.23.37-.71.2-1.38.38-2.01.53-.42.1-.83.19-1.23.26v-2.92h-1.38v3.15c-.44.06-.84.09-1.23.11-.17.01-.33.01-.49.01h-.02c-1.39,0-2.63-.95-2.91-2.31-.33-1.59.65-3.04,2.07-3.44v-1.43c-2.01.37-3.54,2.14-3.54,4.25,0,2.39,1.94,4.33,4.33,4.33h.08c.15,0,.32,0,.49-.01.38-.01.79-.05,1.22-.1.44-.05.9-.12,1.38-.21.4-.07.81-.16,1.23-.25.68-.16,1.4-.34,2.16-.55.39-.11.78-.23,1.18-.35.56,3.05,3.22,5.36,6.43,5.36h.05c1.97-.02,3.56-1.63,3.56-3.61v-5.44c.42-.16.83-.3,1.23-.44.68-.23,1.35-.45,2.01-.65.05-.01.1-.03.15-.04.35-.11.71-.22,1.08-.32v6.21h5.99c2.37,0,4.36-1.85,4.43-4.21.06-2.44-1.9-4.45-4.32-4.45ZM23.61,29.91c0,1.23-.99,2.23-2.23,2.23-.62,0-1.17-.25-1.58-.65-.4-.41-.65-.97-.65-1.58v-3.18c.19-.07.38-.14.57-.22.24-.09.46-.17.66-.25.17-.07.33-.13.47-.19l.32-.12.39-.17s.11-.04.18-.07h.03s.01-.01.01-.01h.01s.02-.02.02-.02c.1-.03.26-.1.5-.19l.07-.04.09-.03c.14-.06.31-.13.5-.2l.48-.19.16-.06v4.94ZM29.46,21.57c-.34.09-.69.19-1.11.31-.04.01-.08.02-.12.04-.66.19-1.33.4-2.01.63-.4.13-.81.27-1.23.42v-10.06c0-1.19.9-2.21,2.09-2.29.67-.04,1.29.21,1.72.65.41.4.66.96.66,1.57v8.73ZM35.55,27.83h-1.79v-5.73c.09-.02.17-.03.26-.04.33-.04.66-.06.97-.08h.17c.11-.01.22-.01.32-.01h.02c1.4,0,2.65.96,2.92,2.33.38,1.87-1.06,3.53-2.87,3.53Z"/>
    </g>
  </g>
</svg>